{
    "asset" : {
        "generator" : "Khronos glTF Blender I/O v1.2.75",
        "version" : "2.0"
    },
    "scene" : 0,
    "scenes" : [
        {
            "name" : "Scene",
            "nodes" : [
                0,
                1
            ]
        }
    ],
    "nodes" : [
        {
            "mesh" : 0,
            "name" : "Text_Mesh",
            "rotation" : [
                0.7071068286895752,
                0,
                0,
                0.7071067094802856
            ]
        },
        {
            "mesh" : 1,
            "name" : "Cylinder.001",
            "rotation" : [
                0.7071068286895752,
                0,
                0,
                0.7071067094802856
            ]
        }
    ],
    "materials" : [
        {
            "doubleSided" : true,
            "emissiveFactor" : [
                1.4000000192027073e-05,
                0,
                0.09319200366735458
            ],
            "name" : "Material.015",
            "pbrMetallicRoughness" : {
                "baseColorFactor" : [
                    5.8000001445179805e-05,
                    0,
                    0.38830000162124634,
                    1
                ],
                "metallicFactor" : 0,
                "roughnessFactor" : 0.6732679605484009
            }
        },
        {
            "doubleSided" : true,
            "emissiveFactor" : [
                0,
                0,
                0
            ],
            "name" : "Material.005",
            "pbrMetallicRoughness" : {
                "baseColorFactor" : [
                    0.004530000034719706,
                    0.004530000034719706,
                    0.004530000034719706,
                    1
                ],
                "metallicFactor" : 0,
                "roughnessFactor" : 0.6732679605484009
            }
        },
        {
            "doubleSided" : true,
            "emissiveFactor" : [
                0,
                0,
                0
            ],
            "name" : "Material.006",
            "pbrMetallicRoughness" : {
                "baseColorFactor" : [
                    0,
                    0,
                    0,
                    1
                ],
                "metallicFactor" : 0,
                "roughnessFactor" : 0.6732679605484009
            }
        },
        {
            "doubleSided" : true,
            "emissiveFactor" : [
                0,
                0,
                0
            ],
            "name" : "Material.007",
            "pbrMetallicRoughness" : {
                "baseColorFactor" : [
                    0.21994799375534058,
                    0.21994799375534058,
                    0.21994799375534058,
                    1
                ],
                "metallicFactor" : 0,
                "roughnessFactor" : 0.6732679605484009
            }
        },
        {
            "doubleSided" : true,
            "emissiveFactor" : [
                0,
                0,
                0
            ],
            "name" : "Material.008",
            "pbrMetallicRoughness" : {
                "baseColorFactor" : [
                    0.5324400067329407,
                    0.29289600253105164,
                    0.09600300341844559,
                    1
                ],
                "metallicFactor" : 0,
                "roughnessFactor" : 0.6732679605484009
            }
        }
    ],
    "meshes" : [
        {
            "name" : "Text_Mesh",
            "primitives" : [
                {
                    "attributes" : {
                        "POSITION" : 0,
                        "NORMAL" : 1,
                        "TEXCOORD_0" : 2
                    },
                    "indices" : 3,
                    "material" : 0
                }
            ]
        },
        {
            "name" : "Cylinder.001",
            "primitives" : [
                {
                    "attributes" : {
                        "POSITION" : 4,
                        "NORMAL" : 5,
                        "TEXCOORD_0" : 6
                    },
                    "indices" : 7,
                    "material" : 1
                },
                {
                    "attributes" : {
                        "POSITION" : 8,
                        "NORMAL" : 9,
                        "TEXCOORD_0" : 10
                    },
                    "indices" : 11,
                    "material" : 2
                },
                {
                    "attributes" : {
                        "POSITION" : 12,
                        "NORMAL" : 13,
                        "TEXCOORD_0" : 14
                    },
                    "indices" : 15,
                    "material" : 3
                },
                {
                    "attributes" : {
                        "POSITION" : 16,
                        "NORMAL" : 17,
                        "TEXCOORD_0" : 18
                    },
                    "indices" : 19,
                    "material" : 4
                }
            ]
        }
    ],
    "accessors" : [
        {
            "bufferView" : 0,
            "componentType" : 5126,
            "count" : 1144,
            "max" : [
                -1.2045819759368896,
                -3.3035809993743896,
                -0.8830710053443909
            ],
            "min" : [
                -1.4211210012435913,
                -3.362230062484741,
                -0.9859139919281006
            ],
            "type" : "VEC3"
        },
        {
            "bufferView" : 1,
            "componentType" : 5126,
            "count" : 1144,
            "type" : "VEC3"
        },
        {
            "bufferView" : 2,
            "componentType" : 5126,
            "count" : 1144,
            "type" : "VEC2"
        },
        {
            "bufferView" : 3,
            "componentType" : 5123,
            "count" : 1728,
            "type" : "SCALAR"
        },
        {
            "bufferView" : 4,
            "componentType" : 5126,
            "count" : 92,
            "max" : [
                -0.14976100623607635,
                -1.7265249490737915,
                -0.4954800009727478
            ],
            "min" : [
                -0.2365349978208542,
                -3.3221969604492188,
                -2.0866539478302
            ],
            "type" : "VEC3"
        },
        {
            "bufferView" : 5,
            "componentType" : 5126,
            "count" : 92,
            "type" : "VEC3"
        },
        {
            "bufferView" : 6,
            "componentType" : 5126,
            "count" : 92,
            "type" : "VEC2"
        },
        {
            "bufferView" : 7,
            "componentType" : 5123,
            "count" : 138,
            "type" : "SCALAR"
        },
        {
            "bufferView" : 8,
            "componentType" : 5126,
            "count" : 1448,
            "max" : [
                -0.10210099816322327,
                -1.7233049869537354,
                -0.49011701345443726
            ],
            "min" : [
                -0.2771190106868744,
                -3.3221969604492188,
                -2.0889549255371094
            ],
            "type" : "VEC3"
        },
        {
            "bufferView" : 9,
            "componentType" : 5126,
            "count" : 1448,
            "type" : "VEC3"
        },
        {
            "bufferView" : 10,
            "componentType" : 5126,
            "count" : 1448,
            "type" : "VEC2"
        },
        {
            "bufferView" : 11,
            "componentType" : 5123,
            "count" : 2232,
            "type" : "SCALAR"
        },
        {
            "bufferView" : 12,
            "componentType" : 5126,
            "count" : 256,
            "max" : [
                -0.1502549946308136,
                -2.358077049255371,
                -1.1248890161514282
            ],
            "min" : [
                -0.23603999614715576,
                -2.687558889389038,
                -1.4541850090026855
            ],
            "type" : "VEC3"
        },
        {
            "bufferView" : 13,
            "componentType" : 5126,
            "count" : 256,
            "type" : "VEC3"
        },
        {
            "bufferView" : 14,
            "componentType" : 5126,
            "count" : 256,
            "type" : "VEC2"
        },
        {
            "bufferView" : 15,
            "componentType" : 5123,
            "count" : 384,
            "type" : "SCALAR"
        },
        {
            "bufferView" : 16,
            "componentType" : 5126,
            "count" : 320,
            "max" : [
                -0.10210099816322327,
                -2.3989429473876953,
                -1.1657559871673584
            ],
            "min" : [
                -0.143776997923851,
                -2.646559000015259,
                -1.413370966911316
            ],
            "type" : "VEC3"
        },
        {
            "bufferView" : 17,
            "componentType" : 5126,
            "count" : 320,
            "type" : "VEC3"
        },
        {
            "bufferView" : 18,
            "componentType" : 5126,
            "count" : 320,
            "type" : "VEC2"
        },
        {
            "bufferView" : 19,
            "componentType" : 5123,
            "count" : 480,
            "type" : "SCALAR"
        }
    ],
    "bufferViews" : [
        {
            "buffer" : 0,
            "byteLength" : 13728,
            "byteOffset" : 0
        },
        {
            "buffer" : 0,
            "byteLength" : 13728,
            "byteOffset" : 13728
        },
        {
            "buffer" : 0,
            "byteLength" : 9152,
            "byteOffset" : 27456
        },
        {
            "buffer" : 0,
            "byteLength" : 3456,
            "byteOffset" : 36608
        },
        {
            "buffer" : 0,
            "byteLength" : 1104,
            "byteOffset" : 40064
        },
        {
            "buffer" : 0,
            "byteLength" : 1104,
            "byteOffset" : 41168
        },
        {
            "buffer" : 0,
            "byteLength" : 736,
            "byteOffset" : 42272
        },
        {
            "buffer" : 0,
            "byteLength" : 276,
            "byteOffset" : 43008
        },
        {
            "buffer" : 0,
            "byteLength" : 17376,
            "byteOffset" : 43284
        },
        {
            "buffer" : 0,
            "byteLength" : 17376,
            "byteOffset" : 60660
        },
        {
            "buffer" : 0,
            "byteLength" : 11584,
            "byteOffset" : 78036
        },
        {
            "buffer" : 0,
            "byteLength" : 4464,
            "byteOffset" : 89620
        },
        {
            "buffer" : 0,
            "byteLength" : 3072,
            "byteOffset" : 94084
        },
        {
            "buffer" : 0,
            "byteLength" : 3072,
            "byteOffset" : 97156
        },
        {
            "buffer" : 0,
            "byteLength" : 2048,
            "byteOffset" : 100228
        },
        {
            "buffer" : 0,
            "byteLength" : 768,
            "byteOffset" : 102276
        },
        {
            "buffer" : 0,
            "byteLength" : 3840,
            "byteOffset" : 103044
        },
        {
            "buffer" : 0,
            "byteLength" : 3840,
            "byteOffset" : 106884
        },
        {
            "buffer" : 0,
            "byteLength" : 2560,
            "byteOffset" : 110724
        },
        {
            "buffer" : 0,
            "byteLength" : 960,
            "byteOffset" : 113284
        }
    ],
    "buffers" : [
        {
            "byteLength" : 114244,
            "uri" : "data:application/octet-stream;base64,"
        }
    ]
}
