{
    "asset" : {
        "generator" : "Khronos glTF Blender I/O v1.2.75",
        "version" : "2.0"
    },
    "scene" : 0,
    "scenes" : [
        {
            "name" : "Scene",
            "nodes" : [
                0,
                1,
                2
            ]
        }
    ],
    "nodes" : [
        {
            "name" : "Light",
            "rotation" : [
                0.16907575726509094,
                0.7558803558349609,
                -0.27217137813568115,
                0.570947527885437
            ],
            "translation" : [
                4.076245307922363,
                5.903861999511719,
                -1.0054539442062378
            ]
        },
        {
            "mesh" : 0,
            "name" : "Text_Mesh",
            "rotation" : [
                0.7071068286895752,
                0,
                0,
                0.7071067094802856
            ]
        },
        {
            "mesh" : 1,
            "name" : "Cylinder",
            "rotation" : [
                0.7071068286895752,
                0,
                0,
                0.7071067094802856
            ]
        }
    ],
    "materials" : [
        {
            "doubleSided" : true,
            "emissiveFactor" : [
                1.4000000192027073e-05,
                0,
                0.09319200366735458
            ],
            "name" : "Material.015",
            "pbrMetallicRoughness" : {
                "baseColorFactor" : [
                    5.8000001445179805e-05,
                    0,
                    0.38830000162124634,
                    1
                ],
                "metallicFactor" : 0,
                "roughnessFactor" : 0.6732679605484009
            }
        },
        {
            "doubleSided" : true,
            "emissiveFactor" : [
                0,
                0,
                0
            ],
            "name" : "Material.001",
            "pbrMetallicRoughness" : {
                "baseColorFactor" : [
                    1,
                    0.08598200231790543,
                    0.0010319999419152737,
                    1
                ],
                "metallicFactor" : 0.0967913344502449,
                "roughnessFactor" : 0.6732679605484009
            }
        },
        {
            "doubleSided" : true,
            "emissiveFactor" : [
                0,
                0,
                0
            ],
            "name" : "Material.002",
            "pbrMetallicRoughness" : {
                "baseColorFactor" : [
                    0,
                    0.0050650001503527164,
                    0.21994799375534058,
                    1
                ],
                "metallicFactor" : 0.016666999086737633,
                "roughnessFactor" : 0.5877687335014343
            }
        },
        {
            "doubleSided" : true,
            "emissiveFactor" : [
                0,
                0,
                0
            ],
            "name" : "Material.004",
            "pbrMetallicRoughness" : {
                "baseColorFactor" : [
                    0.03511200100183487,
                    0.03511200100183487,
                    0.03511200100183487,
                    1
                ],
                "metallicFactor" : 0,
                "roughnessFactor" : 0.6732679605484009
            }
        },
        {
            "doubleSided" : true,
            "emissiveFactor" : [
                0,
                0,
                0
            ],
            "name" : "Material.009",
            "pbrMetallicRoughness" : {
                "baseColorFactor" : [
                    0.0803849995136261,
                    0.07169699668884277,
                    0.05365400016307831,
                    1
                ],
                "metallicFactor" : 0.003000000026077032,
                "roughnessFactor" : 0.6732679605484009
            }
        },
        {
            "doubleSided" : true,
            "emissiveFactor" : [
                0,
                0,
                0
            ],
            "name" : "Material.010",
            "pbrMetallicRoughness" : {
                "baseColorFactor" : [
                    0.03511200100183487,
                    0.03511200100183487,
                    0.03511200100183487,
                    1
                ],
                "metallicFactor" : 0,
                "roughnessFactor" : 0.6732679605484009
            }
        },
        {
            "doubleSided" : true,
            "emissiveFactor" : [
                0,
                0,
                0
            ],
            "name" : "Material.011",
            "pbrMetallicRoughness" : {
                "baseColorFactor" : [
                    0.16290099918842316,
                    1,
                    0.016610000282526016,
                    1
                ],
                "metallicFactor" : 0,
                "roughnessFactor" : 0.6732679605484009
            }
        }
    ],
    "meshes" : [
        {
            "name" : "Text_Mesh",
            "primitives" : [
                {
                    "attributes" : {
                        "POSITION" : 0,
                        "NORMAL" : 1,
                        "TEXCOORD_0" : 2
                    },
                    "indices" : 3,
                    "material" : 0
                }
            ]
        },
        {
            "name" : "Cylinder",
            "primitives" : [
                {
                    "attributes" : {
                        "POSITION" : 4,
                        "NORMAL" : 5,
                        "TEXCOORD_0" : 6
                    },
                    "indices" : 7,
                    "material" : 1
                },
                {
                    "attributes" : {
                        "POSITION" : 8,
                        "NORMAL" : 9,
                        "TEXCOORD_0" : 10
                    },
                    "indices" : 11,
                    "material" : 2
                },
                {
                    "attributes" : {
                        "POSITION" : 12,
                        "NORMAL" : 13,
                        "TEXCOORD_0" : 14
                    },
                    "indices" : 15,
                    "material" : 3
                },
                {
                    "attributes" : {
                        "POSITION" : 16,
                        "NORMAL" : 17,
                        "TEXCOORD_0" : 18
                    },
                    "indices" : 19,
                    "material" : 4
                },
                {
                    "attributes" : {
                        "POSITION" : 20,
                        "NORMAL" : 21,
                        "TEXCOORD_0" : 22
                    },
                    "indices" : 23,
                    "material" : 5
                },
                {
                    "attributes" : {
                        "POSITION" : 24,
                        "NORMAL" : 25,
                        "TEXCOORD_0" : 26
                    },
                    "indices" : 27,
                    "material" : 6
                }
            ]
        }
    ],
    "accessors" : [
        {
            "bufferView" : 0,
            "componentType" : 5126,
            "count" : 1144,
            "max" : [
                -1.2045819759368896,
                -3.3035809993743896,
                -0.8830710053443909
            ],
            "min" : [
                -1.4211210012435913,
                -3.362230062484741,
                -0.9859139919281006
            ],
            "type" : "VEC3"
        },
        {
            "bufferView" : 1,
            "componentType" : 5126,
            "count" : 1144,
            "type" : "VEC3"
        },
        {
            "bufferView" : 2,
            "componentType" : 5126,
            "count" : 1144,
            "type" : "VEC2"
        },
        {
            "bufferView" : 3,
            "componentType" : 5123,
            "count" : 1728,
            "type" : "SCALAR"
        },
        {
            "bufferView" : 4,
            "componentType" : 5126,
            "count" : 7438,
            "max" : [
                0.4257029891014099,
                -1.599115014076233,
                -0.3659270107746124
            ],
            "min" : [
                -2.6984989643096924,
                -3.4463870525360107,
                -2.2131989002227783
            ],
            "type" : "VEC3"
        },
        {
            "bufferView" : 5,
            "componentType" : 5126,
            "count" : 7438,
            "type" : "VEC3"
        },
        {
            "bufferView" : 6,
            "componentType" : 5126,
            "count" : 7438,
            "type" : "VEC2"
        },
        {
            "bufferView" : 7,
            "componentType" : 5123,
            "count" : 41736,
            "type" : "SCALAR"
        },
        {
            "bufferView" : 8,
            "componentType" : 5126,
            "count" : 3300,
            "max" : [
                0.7287920117378235,
                -1.6027549505233765,
                -0.36956700682640076
            ],
            "min" : [
                0.4257029891014099,
                -3.442747116088867,
                -2.2095589637756348
            ],
            "type" : "VEC3"
        },
        {
            "bufferView" : 9,
            "componentType" : 5126,
            "count" : 3300,
            "type" : "VEC3"
        },
        {
            "bufferView" : 10,
            "componentType" : 5126,
            "count" : 3300,
            "type" : "VEC2"
        },
        {
            "bufferView" : 11,
            "componentType" : 5123,
            "count" : 19008,
            "type" : "SCALAR"
        },
        {
            "bufferView" : 12,
            "componentType" : 5126,
            "count" : 2244,
            "max" : [
                0.5450149774551392,
                -1.602437973022461,
                -0.3733829855918884
            ],
            "min" : [
                -0.2771190106868744,
                -3.4370970726013184,
                -2.2080419063568115
            ],
            "type" : "VEC3"
        },
        {
            "bufferView" : 13,
            "componentType" : 5126,
            "count" : 2244,
            "type" : "VEC3"
        },
        {
            "bufferView" : 14,
            "componentType" : 5126,
            "count" : 2244,
            "type" : "VEC2"
        },
        {
            "bufferView" : 15,
            "componentType" : 5123,
            "count" : 12672,
            "type" : "SCALAR"
        },
        {
            "bufferView" : 16,
            "componentType" : 5126,
            "count" : 3378,
            "max" : [
                0.14270900189876556,
                -1.766569972038269,
                -0.5333830118179321
            ],
            "min" : [
                -2.748167037963867,
                -3.43457293510437,
                -2.045743942260742
            ],
            "type" : "VEC3"
        },
        {
            "bufferView" : 17,
            "componentType" : 5126,
            "count" : 3378,
            "type" : "VEC3"
        },
        {
            "bufferView" : 18,
            "componentType" : 5126,
            "count" : 3378,
            "type" : "VEC2"
        },
        {
            "bufferView" : 19,
            "componentType" : 5123,
            "count" : 17472,
            "type" : "SCALAR"
        },
        {
            "bufferView" : 20,
            "componentType" : 5126,
            "count" : 6600,
            "max" : [
                -0.5133360028266907,
                -1.9777569770812988,
                -0.7445690035820007
            ],
            "min" : [
                -2.755949020385742,
                -3.0677449703216553,
                -1.834557056427002
            ],
            "type" : "VEC3"
        },
        {
            "bufferView" : 21,
            "componentType" : 5126,
            "count" : 6600,
            "type" : "VEC3"
        },
        {
            "bufferView" : 22,
            "componentType" : 5126,
            "count" : 6600,
            "type" : "VEC2"
        },
        {
            "bufferView" : 23,
            "componentType" : 5123,
            "count" : 38016,
            "type" : "SCALAR"
        },
        {
            "bufferView" : 24,
            "componentType" : 5126,
            "count" : 923,
            "max" : [
                -1.0223040580749512,
                -3.3160440921783447,
                -0.9789249897003174
            ],
            "min" : [
                -1.6454910039901733,
                -3.435091018676758,
                -1.651900053024292
            ],
            "type" : "VEC3"
        },
        {
            "bufferView" : 25,
            "componentType" : 5126,
            "count" : 923,
            "type" : "VEC3"
        },
        {
            "bufferView" : 26,
            "componentType" : 5126,
            "count" : 923,
            "type" : "VEC2"
        },
        {
            "bufferView" : 27,
            "componentType" : 5123,
            "count" : 4080,
            "type" : "SCALAR"
        }
    ],
    "bufferViews" : [
        {
            "buffer" : 0,
            "byteLength" : 13728,
            "byteOffset" : 0
        },
        {
            "buffer" : 0,
            "byteLength" : 13728,
            "byteOffset" : 13728
        },
        {
            "buffer" : 0,
            "byteLength" : 9152,
            "byteOffset" : 27456
        },
        {
            "buffer" : 0,
            "byteLength" : 3456,
            "byteOffset" : 36608
        },
        {
            "buffer" : 0,
            "byteLength" : 89256,
            "byteOffset" : 40064
        },
        {
            "buffer" : 0,
            "byteLength" : 89256,
            "byteOffset" : 129320
        },
        {
            "buffer" : 0,
            "byteLength" : 59504,
            "byteOffset" : 218576
        },
        {
            "buffer" : 0,
            "byteLength" : 83472,
            "byteOffset" : 278080
        },
        {
            "buffer" : 0,
            "byteLength" : 39600,
            "byteOffset" : 361552
        },
        {
            "buffer" : 0,
            "byteLength" : 39600,
            "byteOffset" : 401152
        },
        {
            "buffer" : 0,
            "byteLength" : 26400,
            "byteOffset" : 440752
        },
        {
            "buffer" : 0,
            "byteLength" : 38016,
            "byteOffset" : 467152
        },
        {
            "buffer" : 0,
            "byteLength" : 26928,
            "byteOffset" : 505168
        },
        {
            "buffer" : 0,
            "byteLength" : 26928,
            "byteOffset" : 532096
        },
        {
            "buffer" : 0,
            "byteLength" : 17952,
            "byteOffset" : 559024
        },
        {
            "buffer" : 0,
            "byteLength" : 25344,
            "byteOffset" : 576976
        },
        {
            "buffer" : 0,
            "byteLength" : 40536,
            "byteOffset" : 602320
        },
        {
            "buffer" : 0,
            "byteLength" : 40536,
            "byteOffset" : 642856
        },
        {
            "buffer" : 0,
            "byteLength" : 27024,
            "byteOffset" : 683392
        },
        {
            "buffer" : 0,
            "byteLength" : 34944,
            "byteOffset" : 710416
        },
        {
            "buffer" : 0,
            "byteLength" : 79200,
            "byteOffset" : 745360
        },
        {
            "buffer" : 0,
            "byteLength" : 79200,
            "byteOffset" : 824560
        },
        {
            "buffer" : 0,
            "byteLength" : 52800,
            "byteOffset" : 903760
        },
        {
            "buffer" : 0,
            "byteLength" : 76032,
            "byteOffset" : 956560
        },
        {
            "buffer" : 0,
            "byteLength" : 11076,
            "byteOffset" : 1032592
        },
        {
            "buffer" : 0,
            "byteLength" : 11076,
            "byteOffset" : 1043668
        },
        {
            "buffer" : 0,
            "byteLength" : 7384,
            "byteOffset" : 1054744
        },
        {
            "buffer" : 0,
            "byteLength" : 8160,
            "byteOffset" : 1062128
        }
    ],
    "buffers" : [
        {
            "byteLength" : 1070288,
            "uri" : "data:application/octet-stream;base64,"
        }
    ]
}
