{
    "asset" : {
        "generator" : "Khronos glTF Blender I/O v1.2.75",
        "version" : "2.0"
    },
    "scene" : 0,
    "scenes" : [
        {
            "name" : "Scene",
            "nodes" : [
                0,
                1,
                2,
                3,
                4
            ]
        }
    ],
    "nodes" : [
        {
            "name" : "Light",
            "rotation" : [
                0.16907575726509094,
                0.7558803558349609,
                -0.27217137813568115,
                0.570947527885437
            ],
            "translation" : [
                4.076245307922363,
                5.903861999511719,
                -1.0054539442062378
            ]
        },
        {
            "mesh" : 0,
            "name" : "Cone",
            "rotation" : [
                0.7071068286895752,
                0,
                0,
                0.7071067094802856
            ]
        },
        {
            "mesh" : 1,
            "name" : "Cylinder.002",
            "rotation" : [
                0.7071068286895752,
                0,
                0,
                0.7071067094802856
            ]
        },
        {
            "mesh" : 2,
            "name" : "Text_Mesh",
            "rotation" : [
                0.7071068286895752,
                0,
                0,
                0.7071067094802856
            ]
        },
        {
            "mesh" : 3,
            "name" : "Plane_Plane.001",
            "rotation" : [
                0.7071068286895752,
                0,
                0,
                0.7071067094802856
            ]
        }
    ],
    "materials" : [
        {
            "doubleSided" : true,
            "emissiveFactor" : [
                0,
                0,
                0
            ],
            "name" : "Material.003",
            "pbrMetallicRoughness" : {
                "baseColorFactor" : [
                    0.05344599857926369,
                    0.05344599857926369,
                    0.05344599857926369,
                    1
                ],
                "metallicFactor" : 0,
                "roughnessFactor" : 0.6732679605484009
            }
        },
        {
            "doubleSided" : true,
            "emissiveFactor" : [
                0,
                0,
                0
            ],
            "name" : "Material.016",
            "pbrMetallicRoughness" : {
                "baseColorFactor" : [
                    0.17582499980926514,
                    0.16755500435829163,
                    0.016102999448776245,
                    1
                ],
                "metallicFactor" : 0,
                "roughnessFactor" : 0.6732679605484009
            }
        },
        {
            "doubleSided" : true,
            "emissiveFactor" : [
                0,
                0,
                0
            ],
            "name" : "Material.017",
            "pbrMetallicRoughness" : {
                "baseColorFactor" : [
                    0.05344700068235397,
                    0.05344700068235397,
                    0.05344700068235397,
                    1
                ],
                "metallicFactor" : 0,
                "roughnessFactor" : 0.6732679605484009
            }
        },
        {
            "doubleSided" : true,
            "emissiveFactor" : [
                0,
                0,
                0
            ],
            "name" : "Material.018",
            "pbrMetallicRoughness" : {
                "baseColorFactor" : [
                    0.0007469999836757779,
                    0.043313998728990555,
                    1,
                    1
                ],
                "metallicFactor" : 0.15833300352096558,
                "roughnessFactor" : 0.6732679605484009
            }
        },
        {
            "doubleSided" : true,
            "emissiveFactor" : [
                0,
                0,
                0
            ],
            "name" : "Material.019",
            "pbrMetallicRoughness" : {
                "baseColorFactor" : [
                    0.2699350118637085,
                    0.2699350118637085,
                    0.2699350118637085,
                    1
                ],
                "metallicFactor" : 0.04166699945926666,
                "roughnessFactor" : 0.650708794593811
            }
        },
        {
            "doubleSided" : true,
            "emissiveFactor" : [
                0,
                0,
                0
            ],
            "name" : "Material.020",
            "pbrMetallicRoughness" : {
                "baseColorFactor" : [
                    0.3568449914455414,
                    0.35546401143074036,
                    0.3800559937953949,
                    1
                ],
                "metallicFactor" : 0.07500000298023224,
                "roughnessFactor" : 0.6732679605484009
            }
        },
        {
            "doubleSided" : true,
            "emissiveFactor" : [
                1.4000000192027073e-05,
                0,
                0.09319200366735458
            ],
            "name" : "Material.015",
            "pbrMetallicRoughness" : {
                "baseColorFactor" : [
                    5.8000001445179805e-05,
                    0,
                    0.38830000162124634,
                    1
                ],
                "metallicFactor" : 0,
                "roughnessFactor" : 0.6732679605484009
            }
        },
        {
            "doubleSided" : true,
            "emissiveFactor" : [
                0,
                0,
                0
            ],
            "name" : "Material.012",
            "pbrMetallicRoughness" : {
                "baseColorFactor" : [
                    0.011033999733626842,
                    0.003531999886035919,
                    0.003531999886035919,
                    1
                ],
                "metallicFactor" : 0,
                "roughnessFactor" : 0.6732679605484009
            }
        }
    ],
    "meshes" : [
        {
            "name" : "Cone",
            "primitives" : [
                {
                    "attributes" : {
                        "POSITION" : 0,
                        "NORMAL" : 1,
                        "TEXCOORD_0" : 2
                    },
                    "indices" : 3,
                    "material" : 0
                },
                {
                    "attributes" : {
                        "POSITION" : 4,
                        "NORMAL" : 5,
                        "TEXCOORD_0" : 6
                    },
                    "indices" : 7,
                    "material" : 1
                }
            ]
        },
        {
            "name" : "Cylinder.002",
            "primitives" : [
                {
                    "attributes" : {
                        "POSITION" : 8,
                        "NORMAL" : 9,
                        "TEXCOORD_0" : 10
                    },
                    "indices" : 11,
                    "material" : 2
                },
                {
                    "attributes" : {
                        "POSITION" : 12,
                        "NORMAL" : 13,
                        "TEXCOORD_0" : 14
                    },
                    "indices" : 15,
                    "material" : 3
                },
                {
                    "attributes" : {
                        "POSITION" : 16,
                        "NORMAL" : 17,
                        "TEXCOORD_0" : 18
                    },
                    "indices" : 19,
                    "material" : 4
                },
                {
                    "attributes" : {
                        "POSITION" : 20,
                        "NORMAL" : 21,
                        "TEXCOORD_0" : 22
                    },
                    "indices" : 23,
                    "material" : 5
                }
            ]
        },
        {
            "name" : "Text_Mesh",
            "primitives" : [
                {
                    "attributes" : {
                        "POSITION" : 24,
                        "NORMAL" : 25,
                        "TEXCOORD_0" : 26
                    },
                    "indices" : 27,
                    "material" : 6
                }
            ]
        },
        {
            "name" : "Plane_Plane.001",
            "primitives" : [
                {
                    "attributes" : {
                        "POSITION" : 28,
                        "NORMAL" : 29,
                        "TEXCOORD_0" : 30
                    },
                    "indices" : 31,
                    "material" : 7
                }
            ]
        }
    ],
    "accessors" : [
        {
            "bufferView" : 0,
            "componentType" : 5126,
            "count" : 25763,
            "max" : [
                0.9400399923324585,
                1.7179570198059082,
                -0.7628290057182312
            ],
            "min" : [
                -3.063770055770874,
                -0.40042299032211304,
                -2.881208896636963
            ],
            "type" : "VEC3"
        },
        {
            "bufferView" : 1,
            "componentType" : 5126,
            "count" : 25763,
            "type" : "VEC3"
        },
        {
            "bufferView" : 2,
            "componentType" : 5126,
            "count" : 25763,
            "type" : "VEC2"
        },
        {
            "bufferView" : 3,
            "componentType" : 5123,
            "count" : 124974,
            "type" : "SCALAR"
        },
        {
            "bufferView" : 4,
            "componentType" : 5126,
            "count" : 399,
            "max" : [
                0.9400399923324585,
                0.8175770044326782,
                -1.6668390035629272
            ],
            "min" : [
                -1.9551939964294434,
                0.5024539828300476,
                -1.987004041671753
            ],
            "type" : "VEC3"
        },
        {
            "bufferView" : 5,
            "componentType" : 5126,
            "count" : 399,
            "type" : "VEC3"
        },
        {
            "bufferView" : 6,
            "componentType" : 5126,
            "count" : 399,
            "type" : "VEC2"
        },
        {
            "bufferView" : 7,
            "componentType" : 5123,
            "count" : 1134,
            "type" : "SCALAR"
        },
        {
            "bufferView" : 8,
            "componentType" : 5126,
            "count" : 9952,
            "max" : [
                2.094542980194092,
                1.8165669441223145,
                -0.6643059849739075
            ],
            "min" : [
                -4.648552894592285,
                -0.49902600049972534,
                -2.9798989295959473
            ],
            "type" : "VEC3"
        },
        {
            "bufferView" : 9,
            "componentType" : 5126,
            "count" : 9952,
            "type" : "VEC3"
        },
        {
            "bufferView" : 10,
            "componentType" : 5126,
            "count" : 9952,
            "type" : "VEC2"
        },
        {
            "bufferView" : 11,
            "componentType" : 5123,
            "count" : 57984,
            "type" : "SCALAR"
        },
        {
            "bufferView" : 12,
            "componentType" : 5126,
            "count" : 576,
            "max" : [
                2.0432469844818115,
                2.0209779739379883,
                -0.4598959982395172
            ],
            "min" : [
                -3.311988115310669,
                -0.703436017036438,
                -3.184309959411621
            ],
            "type" : "VEC3"
        },
        {
            "bufferView" : 13,
            "componentType" : 5126,
            "count" : 576,
            "type" : "VEC3"
        },
        {
            "bufferView" : 14,
            "componentType" : 5126,
            "count" : 576,
            "type" : "VEC2"
        },
        {
            "bufferView" : 15,
            "componentType" : 5123,
            "count" : 3072,
            "type" : "SCALAR"
        },
        {
            "bufferView" : 16,
            "componentType" : 5126,
            "count" : 896,
            "max" : [
                -3.260270118713379,
                1.5843230485916138,
                -0.8965510129928589
            ],
            "min" : [
                -4.370724201202393,
                -0.2667810022830963,
                -2.747654914855957
            ],
            "type" : "VEC3"
        },
        {
            "bufferView" : 17,
            "componentType" : 5126,
            "count" : 896,
            "type" : "VEC3"
        },
        {
            "bufferView" : 18,
            "componentType" : 5126,
            "count" : 896,
            "type" : "VEC2"
        },
        {
            "bufferView" : 19,
            "componentType" : 5123,
            "count" : 4608,
            "type" : "SCALAR"
        },
        {
            "bufferView" : 20,
            "componentType" : 5126,
            "count" : 576,
            "max" : [
                2.222470998764038,
                1.6439889669418335,
                -0.8368840217590332
            ],
            "min" : [
                2.0432469844818115,
                -0.3264470100402832,
                -2.807321071624756
            ],
            "type" : "VEC3"
        },
        {
            "bufferView" : 21,
            "componentType" : 5126,
            "count" : 576,
            "type" : "VEC3"
        },
        {
            "bufferView" : 22,
            "componentType" : 5126,
            "count" : 576,
            "type" : "VEC2"
        },
        {
            "bufferView" : 23,
            "componentType" : 5123,
            "count" : 3072,
            "type" : "SCALAR"
        },
        {
            "bufferView" : 24,
            "componentType" : 5126,
            "count" : 1144,
            "max" : [
                -1.2045819759368896,
                -3.3035809993743896,
                -0.8830710053443909
            ],
            "min" : [
                -1.4211210012435913,
                -3.362230062484741,
                -0.9859139919281006
            ],
            "type" : "VEC3"
        },
        {
            "bufferView" : 25,
            "componentType" : 5126,
            "count" : 1144,
            "type" : "VEC3"
        },
        {
            "bufferView" : 26,
            "componentType" : 5126,
            "count" : 1144,
            "type" : "VEC2"
        },
        {
            "bufferView" : 27,
            "componentType" : 5123,
            "count" : 1728,
            "type" : "SCALAR"
        },
        {
            "bufferView" : 28,
            "componentType" : 5126,
            "count" : 4,
            "max" : [
                76.40199279785156,
                72.7520751953125,
                0.6645609736442566
            ],
            "min" : [
                -72.67739868164062,
                -76.32731628417969,
                0.6645609736442566
            ],
            "type" : "VEC3"
        },
        {
            "bufferView" : 29,
            "componentType" : 5126,
            "count" : 4,
            "type" : "VEC3"
        },
        {
            "bufferView" : 30,
            "componentType" : 5126,
            "count" : 4,
            "type" : "VEC2"
        },
        {
            "bufferView" : 31,
            "componentType" : 5123,
            "count" : 6,
            "type" : "SCALAR"
        }
    ],
    "bufferViews" : [
        {
            "buffer" : 0,
            "byteLength" : 309156,
            "byteOffset" : 0
        },
        {
            "buffer" : 0,
            "byteLength" : 309156,
            "byteOffset" : 309156
        },
        {
            "buffer" : 0,
            "byteLength" : 206104,
            "byteOffset" : 618312
        },
        {
            "buffer" : 0,
            "byteLength" : 249948,
            "byteOffset" : 824416
        },
        {
            "buffer" : 0,
            "byteLength" : 4788,
            "byteOffset" : 1074364
        },
        {
            "buffer" : 0,
            "byteLength" : 4788,
            "byteOffset" : 1079152
        },
        {
            "buffer" : 0,
            "byteLength" : 3192,
            "byteOffset" : 1083940
        },
        {
            "buffer" : 0,
            "byteLength" : 2268,
            "byteOffset" : 1087132
        },
        {
            "buffer" : 0,
            "byteLength" : 119424,
            "byteOffset" : 1089400
        },
        {
            "buffer" : 0,
            "byteLength" : 119424,
            "byteOffset" : 1208824
        },
        {
            "buffer" : 0,
            "byteLength" : 79616,
            "byteOffset" : 1328248
        },
        {
            "buffer" : 0,
            "byteLength" : 115968,
            "byteOffset" : 1407864
        },
        {
            "buffer" : 0,
            "byteLength" : 6912,
            "byteOffset" : 1523832
        },
        {
            "buffer" : 0,
            "byteLength" : 6912,
            "byteOffset" : 1530744
        },
        {
            "buffer" : 0,
            "byteLength" : 4608,
            "byteOffset" : 1537656
        },
        {
            "buffer" : 0,
            "byteLength" : 6144,
            "byteOffset" : 1542264
        },
        {
            "buffer" : 0,
            "byteLength" : 10752,
            "byteOffset" : 1548408
        },
        {
            "buffer" : 0,
            "byteLength" : 10752,
            "byteOffset" : 1559160
        },
        {
            "buffer" : 0,
            "byteLength" : 7168,
            "byteOffset" : 1569912
        },
        {
            "buffer" : 0,
            "byteLength" : 9216,
            "byteOffset" : 1577080
        },
        {
            "buffer" : 0,
            "byteLength" : 6912,
            "byteOffset" : 1586296
        },
        {
            "buffer" : 0,
            "byteLength" : 6912,
            "byteOffset" : 1593208
        },
        {
            "buffer" : 0,
            "byteLength" : 4608,
            "byteOffset" : 1600120
        },
        {
            "buffer" : 0,
            "byteLength" : 6144,
            "byteOffset" : 1604728
        },
        {
            "buffer" : 0,
            "byteLength" : 13728,
            "byteOffset" : 1610872
        },
        {
            "buffer" : 0,
            "byteLength" : 13728,
            "byteOffset" : 1624600
        },
        {
            "buffer" : 0,
            "byteLength" : 9152,
            "byteOffset" : 1638328
        },
        {
            "buffer" : 0,
            "byteLength" : 3456,
            "byteOffset" : 1647480
        },
        {
            "buffer" : 0,
            "byteLength" : 48,
            "byteOffset" : 1650936
        },
        {
            "buffer" : 0,
            "byteLength" : 48,
            "byteOffset" : 1650984
        },
        {
            "buffer" : 0,
            "byteLength" : 32,
            "byteOffset" : 1651032
        },
        {
            "buffer" : 0,
            "byteLength" : 12,
            "byteOffset" : 1651064
        }
    ],
    "buffers" : [
        {
            "byteLength" : 1651076,
            "uri" : "data:application/octet-stream;base64,"
        }
    ]
}
