{
    "asset" : {
        "generator" : "Khronos glTF Blender I/O v1.2.75",
        "version" : "2.0"
    },
    "scene" : 0,
    "scenes" : [
        {
            "name" : "Scene",
            "nodes" : [
                0,
                1,
                2,
                3
            ]
        }
    ],
    "nodes" : [
        {
            "name" : "Light",
            "rotation" : [
                0.16907575726509094,
                0.7558803558349609,
                -0.27217137813568115,
                0.570947527885437
            ],
            "translation" : [
                4.076245307922363,
                5.903861999511719,
                -1.0054539442062378
            ]
        },
        {
            "mesh" : 0,
            "name" : "Plane.001_Plane",
            "rotation" : [
                0.7071068286895752,
                0,
                0,
                0.7071067094802856
            ]
        },
        {
            "mesh" : 1,
            "name" : "Text_Mesh",
            "rotation" : [
                0.7071068286895752,
                0,
                0,
                0.7071067094802856
            ]
        },
        {
            "mesh" : 2,
            "name" : "Plane_Plane.001",
            "rotation" : [
                0.7071068286895752,
                0,
                0,
                0.7071067094802856
            ]
        }
    ],
    "materials" : [
        {
            "doubleSided" : true,
            "emissiveFactor" : [
                0,
                0,
                0
            ],
            "name" : "Material.022",
            "pbrMetallicRoughness" : {
                "baseColorFactor" : [
                    0.2624039947986603,
                    0.2775479853153229,
                    0.3259870111942291,
                    1
                ],
                "metallicFactor" : 0.08333300054073334,
                "roughnessFactor" : 0.5149287581443787
            }
        },
        {
            "doubleSided" : true,
            "emissiveFactor" : [
                0.5199999809265137,
                0.01487400010228157,
                0.002389000030234456
            ],
            "name" : "Material.023",
            "pbrMetallicRoughness" : {
                "baseColorFactor" : [
                    1,
                    0.028603000566363335,
                    0.004594000056385994,
                    1
                ],
                "metallicFactor" : 0,
                "roughnessFactor" : 0.6732679605484009
            }
        },
        {
            "doubleSided" : true,
            "emissiveFactor" : [
                1.4000000192027073e-05,
                0,
                0.09319200366735458
            ],
            "name" : "Material.015",
            "pbrMetallicRoughness" : {
                "baseColorFactor" : [
                    5.8000001445179805e-05,
                    0,
                    0.38830000162124634,
                    1
                ],
                "metallicFactor" : 0,
                "roughnessFactor" : 0.6732679605484009
            }
        },
        {
            "doubleSided" : true,
            "emissiveFactor" : [
                0,
                0,
                0
            ],
            "name" : "Material.012",
            "pbrMetallicRoughness" : {
                "baseColorFactor" : [
                    0.011033999733626842,
                    0.003531999886035919,
                    0.003531999886035919,
                    1
                ],
                "metallicFactor" : 0,
                "roughnessFactor" : 0.6732679605484009
            }
        }
    ],
    "meshes" : [
        {
            "name" : "Plane.001_Plane",
            "primitives" : [
                {
                    "attributes" : {
                        "POSITION" : 0,
                        "NORMAL" : 1,
                        "TEXCOORD_0" : 2
                    },
                    "indices" : 3,
                    "material" : 0
                },
                {
                    "attributes" : {
                        "POSITION" : 4,
                        "NORMAL" : 5,
                        "TEXCOORD_0" : 6
                    },
                    "indices" : 7,
                    "material" : 1
                }
            ]
        },
        {
            "name" : "Text_Mesh",
            "primitives" : [
                {
                    "attributes" : {
                        "POSITION" : 8,
                        "NORMAL" : 9,
                        "TEXCOORD_0" : 10
                    },
                    "indices" : 11,
                    "material" : 2
                }
            ]
        },
        {
            "name" : "Plane_Plane.001",
            "primitives" : [
                {
                    "attributes" : {
                        "POSITION" : 12,
                        "NORMAL" : 13,
                        "TEXCOORD_0" : 14
                    },
                    "indices" : 15,
                    "material" : 3
                }
            ]
        }
    ],
    "accessors" : [
        {
            "bufferView" : 0,
            "componentType" : 5126,
            "count" : 572,
            "max" : [
                1.3050520420074463,
                1.1748239994049072,
                -3.0280580520629883
            ],
            "min" : [
                -2.088758945465088,
                0.25945600867271423,
                -3.8288838863372803
            ],
            "type" : "VEC3"
        },
        {
            "bufferView" : 1,
            "componentType" : 5126,
            "count" : 572,
            "type" : "VEC3"
        },
        {
            "bufferView" : 2,
            "componentType" : 5126,
            "count" : 572,
            "type" : "VEC2"
        },
        {
            "bufferView" : 3,
            "componentType" : 5123,
            "count" : 2652,
            "type" : "SCALAR"
        },
        {
            "bufferView" : 4,
            "componentType" : 5126,
            "count" : 18,
            "max" : [
                0.6198890209197998,
                0.7520470023155212,
                -3.335026979446411
            ],
            "min" : [
                0.5192109942436218,
                0.6822329759597778,
                -3.4003899097442627
            ],
            "type" : "VEC3"
        },
        {
            "bufferView" : 5,
            "componentType" : 5126,
            "count" : 18,
            "type" : "VEC3"
        },
        {
            "bufferView" : 6,
            "componentType" : 5126,
            "count" : 18,
            "type" : "VEC2"
        },
        {
            "bufferView" : 7,
            "componentType" : 5123,
            "count" : 84,
            "type" : "SCALAR"
        },
        {
            "bufferView" : 8,
            "componentType" : 5126,
            "count" : 1144,
            "max" : [
                -1.2045819759368896,
                -3.3035809993743896,
                -0.8830710053443909
            ],
            "min" : [
                -1.4211210012435913,
                -3.362230062484741,
                -0.9859139919281006
            ],
            "type" : "VEC3"
        },
        {
            "bufferView" : 9,
            "componentType" : 5126,
            "count" : 1144,
            "type" : "VEC3"
        },
        {
            "bufferView" : 10,
            "componentType" : 5126,
            "count" : 1144,
            "type" : "VEC2"
        },
        {
            "bufferView" : 11,
            "componentType" : 5123,
            "count" : 1728,
            "type" : "SCALAR"
        },
        {
            "bufferView" : 12,
            "componentType" : 5126,
            "count" : 4,
            "max" : [
                76.40199279785156,
                72.7520751953125,
                0.6645609736442566
            ],
            "min" : [
                -72.67739868164062,
                -76.32731628417969,
                0.6645609736442566
            ],
            "type" : "VEC3"
        },
        {
            "bufferView" : 13,
            "componentType" : 5126,
            "count" : 4,
            "type" : "VEC3"
        },
        {
            "bufferView" : 14,
            "componentType" : 5126,
            "count" : 4,
            "type" : "VEC2"
        },
        {
            "bufferView" : 15,
            "componentType" : 5123,
            "count" : 6,
            "type" : "SCALAR"
        }
    ],
    "bufferViews" : [
        {
            "buffer" : 0,
            "byteLength" : 6864,
            "byteOffset" : 0
        },
        {
            "buffer" : 0,
            "byteLength" : 6864,
            "byteOffset" : 6864
        },
        {
            "buffer" : 0,
            "byteLength" : 4576,
            "byteOffset" : 13728
        },
        {
            "buffer" : 0,
            "byteLength" : 5304,
            "byteOffset" : 18304
        },
        {
            "buffer" : 0,
            "byteLength" : 216,
            "byteOffset" : 23608
        },
        {
            "buffer" : 0,
            "byteLength" : 216,
            "byteOffset" : 23824
        },
        {
            "buffer" : 0,
            "byteLength" : 144,
            "byteOffset" : 24040
        },
        {
            "buffer" : 0,
            "byteLength" : 168,
            "byteOffset" : 24184
        },
        {
            "buffer" : 0,
            "byteLength" : 13728,
            "byteOffset" : 24352
        },
        {
            "buffer" : 0,
            "byteLength" : 13728,
            "byteOffset" : 38080
        },
        {
            "buffer" : 0,
            "byteLength" : 9152,
            "byteOffset" : 51808
        },
        {
            "buffer" : 0,
            "byteLength" : 3456,
            "byteOffset" : 60960
        },
        {
            "buffer" : 0,
            "byteLength" : 48,
            "byteOffset" : 64416
        },
        {
            "buffer" : 0,
            "byteLength" : 48,
            "byteOffset" : 64464
        },
        {
            "buffer" : 0,
            "byteLength" : 32,
            "byteOffset" : 64512
        },
        {
            "buffer" : 0,
            "byteLength" : 12,
            "byteOffset" : 64544
        }
    ],
    "buffers" : [
        {
            "byteLength" : 64556,
            "uri" : "data:application/octet-stream;base64,"
        }
    ]
}
